<?xml version="1.0" standalone="no"?>
<!DOCTYPE svg PUBLIC "-//W3C//DTD SVG 20010904//EN"
 "http://www.w3.org/TR/2001/REC-SVG-20010904/DTD/svg10.dtd">
<svg version="1.0" xmlns="http://www.w3.org/2000/svg"
 width="512.000000pt" height="512.000000pt" viewBox="0 0 512.000000 512.000000"
 preserveAspectRatio="xMidYMid meet">
<metadata>
Created by potrace 1.16, written by Peter Selinger 2001-2019
</metadata>
<g transform="translate(0.000000,512.000000) scale(0.100000,-0.100000)"
fill="#000000" stroke="none">
<path d="M3435 4579 c-248 -29 -474 -146 -676 -348 -95 -95 -111 -117 -159
-213 -49 -99 -54 -115 -58 -192 -4 -79 21 -236 35 -222 3 3 16 37 29 76 48
141 145 300 255 417 62 66 63 77 2 23 -59 -51 -135 -138 -181 -208 -19 -29
-37 -50 -39 -48 -7 6 31 105 67 178 30 61 57 103 94 149 12 14 0 3 -27 -25
-27 -29 -68 -92 -98 -150 -28 -56 -48 -87 -45 -71 4 17 24 66 46 110 87 179
316 366 547 446 144 50 340 64 480 35 432 -91 769 -436 859 -880 21 -104 29
-371 15 -496 -31 -271 -151 -652 -297 -942 -42 -83 -145 -237 -226 -335 -127
-156 -610 -639 -628 -628 -8 5 -331 -294 -380 -351 -13 -16 -2 -8 25 17 68 62
161 142 350 299 287 240 602 554 754 753 277 361 434 819 448 1307 10 338 -45
562 -191 784 -193 293 -484 480 -799 515 -105 12 -102 12 -202 0z m-5 -3333
c0 -2 -8 -10 -17 -17 -16 -13 -17 -12 -4 4 13 16 21 21 21 13z m-60 -49 c0 -2
-15 -16 -32 -33 l-33 -29 29 33 c28 30 36 37 36 29z"/>
<path d="M1390 4565 c-203 -45 -368 -141 -535 -310 -155 -155 -275 -359 -327
-555 -12 -47 -26 -88 -31 -91 -4 -3 -5 -19 -2 -35 5 -23 4 -26 -5 -14 -9 12
-10 5 -6 -30 4 -29 3 -38 -3 -25 -19 44 -46 -218 -35 -337 7 -71 9 -78 15 -48
7 32 7 31 5 -10 -6 -101 55 -365 119 -514 126 -292 430 -648 940 -1101 200
-177 509 -482 660 -650 82 -92 253 -301 356 -436 l26 -34 100 205 c164 338
251 467 447 669 106 108 301 273 516 436 86 65 240 215 299 290 99 125 161
259 161 345 0 47 -14 80 -35 80 -17 0 -109 -106 -165 -190 -24 -36 -52 -76
-64 -90 -17 -20 -18 -22 -2 -10 10 8 43 49 72 91 60 85 78 104 94 94 17 -11
11 -47 -19 -110 -83 -174 -257 -355 -566 -590 -235 -179 -379 -312 -498 -460
-148 -183 -273 -399 -318 -546 -12 -39 -22 -69 -24 -67 -1 2 -58 71 -127 153
-223 267 -337 378 -693 670 -272 223 -677 610 -839 800 -77 91 -214 291 -252
368 -29 61 -15 45 66 -70 172 -247 355 -457 565 -649 225 -205 226 -205 19 6
-405 412 -604 692 -698 983 -35 109 -75 322 -85 452 -29 383 92 724 353 992
265 274 621 374 943 264 261 -90 530 -341 640 -599 13 -31 21 -43 18 -27 -4
17 -24 68 -46 114 -130 278 -350 476 -629 566 -71 23 -107 28 -215 31 -89 3
-150 -1 -195 -11z m-913 -1127 c-3 -7 -5 -2 -5 12 0 14 2 19 5 13 2 -7 2 -19
0 -25z m-10 -105 c-2 -16 -4 -3 -4 27 0 30 2 43 4 28 2 -16 2 -40 0 -55z m-10
-110 c-2 -16 -4 -3 -4 27 0 30 2 43 4 28 2 -16 2 -40 0 -55z"/>
<path d="M3443 4513 c9 -2 25 -2 35 0 9 3 1 5 -18 5 -19 0 -27 -2 -17 -5z"/>
<path d="M3368 4503 c6 -2 18 -2 25 0 6 3 1 5 -13 5 -14 0 -19 -2 -12 -5z"/>
<path d="M3328 4493 c7 -3 16 -2 19 1 4 3 -2 6 -13 5 -11 0 -14 -3 -6 -6z"/>
<path d="M3600 4380 c381 -40 662 -249 800 -593 41 -102 87 -282 98 -382 7
-58 10 -68 11 -35 0 25 -6 90 -14 145 -36 256 -134 464 -291 619 -163 162
-350 243 -574 251 -115 4 -115 4 -30 -5z"/>
<path d="M3375 4336 c-84 -16 -190 -56 -265 -98 -62 -35 -155 -102 -166 -119
-8 -13 -7 -13 71 37 87 55 211 113 302 141 78 24 104 27 233 27 132 0 152 -2
225 -28 84 -29 182 -79 237 -122 24 -19 23 -17 -6 10 -46 42 -197 118 -281
141 -82 22 -262 28 -350 11z"/>
<path d="M1405 4325 c-237 -52 -449 -212 -612 -463 -74 -112 -177 -342 -161
-358 3 -2 13 22 22 54 25 78 108 241 169 331 62 93 194 231 267 281 139 94
284 147 444 160 l91 7 -80 1 c-44 0 -107 -6 -140 -13z"/>
<path d="M1429 4291 c-77 -17 -259 -91 -259 -105 0 -4 26 7 58 22 267 134 544
120 789 -40 238 -155 377 -324 455 -556 17 -52 26 -71 23 -47 -10 66 -51 171
-97 253 -31 56 -76 110 -163 198 -134 135 -234 206 -360 256 -74 29 -90 32
-220 35 -108 2 -160 -2 -226 -16z"/>
<path d="M1487 4175 c-79 -20 -218 -93 -295 -156 -89 -72 -185 -196 -242 -314
-55 -113 -84 -211 -100 -335 -12 -101 -11 -161 1 -75 21 144 85 324 161 453
52 89 199 231 285 275 113 59 206 80 353 80 108 0 136 -3 205 -26 202 -66 376
-229 498 -465 61 -120 81 -174 107 -300 l19 -87 0 95 c2 243 -88 451 -274 636
-95 95 -203 162 -320 201 -100 33 -303 42 -398 18z"/>
<path d="M3403 4159 c-244 -22 -474 -194 -574 -430 -47 -109 -29 -116 23 -9
51 106 118 200 173 243 60 48 195 114 275 136 87 24 210 27 286 7 158 -42 327
-181 421 -347 53 -94 64 -125 27 -79 -57 70 -130 143 -187 187 -55 43 -211
123 -238 123 -7 0 20 -16 61 -36 247 -117 407 -347 451 -645 19 -133 6 -400
-26 -517 -30 -113 -104 -260 -182 -364 -97 -128 -289 -324 -468 -477 -295
-253 -559 -526 -628 -653 l-19 -33 29 35 c145 179 293 325 423 417 175 125
343 259 396 316 204 219 363 450 440 643 47 116 102 354 110 474 19 278 -105
624 -294 822 -140 147 -295 205 -499 187z"/>
<path d="M4110 4083 c-70 -26 -43 -129 40 -154 33 -10 43 -9 66 6 23 15 26 22
20 53 -9 60 -79 113 -126 95z"/>
<path d="M2905 3971 c-129 -131 -200 -299 -224 -531 -6 -50 -6 -101 -2 -113 8
-20 9 -18 14 13 57 371 98 475 265 673 32 37 2 14 -53 -42z"/>
<path d="M3155 3980 c-3 -6 1 -7 9 -4 18 7 21 14 7 14 -6 0 -13 -4 -16 -10z"/>
<path d="M3100 3949 c-53 -33 -120 -90 -132 -113 -6 -12 11 0 39 25 27 25 68
59 91 74 36 24 49 35 40 35 -2 0 -19 -10 -38 -21z"/>
<path d="M4121 3868 c111 -146 178 -302 213 -493 8 -44 15 -66 15 -50 2 91
-69 309 -139 430 -36 61 -146 205 -156 205 -2 0 28 -42 67 -92z"/>
<path d="M1578 3893 c6 -2 18 -2 25 0 6 3 1 5 -13 5 -14 0 -19 -2 -12 -5z"/>
<path d="M1808 3893 c7 -3 16 -2 19 1 4 3 -2 6 -13 5 -11 0 -14 -3 -6 -6z"/>
<path d="M1457 3866 c-185 -66 -371 -250 -472 -469 -108 -233 -125 -500 -48
-736 36 -110 122 -277 220 -426 75 -113 107 -151 247 -285 398 -384 566 -571
680 -752 56 -91 72 -103 25 -20 -79 141 -205 296 -472 581 -220 234 -271 297
-378 465 -104 163 -157 264 -209 395 -70 177 -84 252 -84 436 0 189 17 265 89
412 99 200 249 338 435 398 41 13 66 24 55 24 -11 0 -51 -10 -88 -23z"/>
<path d="M1858 3883 c7 -3 16 -2 19 1 4 3 -2 6 -13 5 -11 0 -14 -3 -6 -6z"/>
<path d="M1940 3854 c30 -14 61 -30 69 -37 12 -9 13 -9 7 1 -9 14 -99 62 -118
62 -7 0 12 -12 42 -26z"/>
<path d="M3330 3845 c-183 -51 -346 -206 -365 -347 l-6 -43 33 59 c94 169 266
266 471 266 354 0 582 -333 499 -730 -17 -83 -59 -206 -68 -198 -1 2 5 35 13
73 25 112 23 311 -5 410 -26 91 -79 196 -123 246 l-30 34 24 -35 c41 -58 86
-155 109 -237 32 -110 32 -340 -1 -458 -60 -222 -218 -428 -514 -672 -333
-275 -434 -373 -548 -533 -65 -90 -144 -241 -189 -356 -39 -101 -38 -119 1
-30 45 99 111 207 183 300 81 102 280 299 416 412 416 342 558 499 676 748
186 395 109 827 -184 1019 -37 24 -87 52 -112 62 -62 24 -209 30 -280 10z"/>
<path d="M1632 3839 c-164 -32 -390 -197 -467 -341 -33 -62 -24 -55 28 24 51
76 127 145 214 196 39 23 75 42 78 42 4 0 -16 -21 -44 -46 -56 -50 -129 -154
-161 -230 -55 -128 -77 -354 -49 -495 6 -30 10 -73 10 -96 0 -24 8 -77 19
-118 11 -41 17 -81 14 -89 -13 -33 91 -245 183 -375 78 -108 268 -296 433
-428 85 -68 157 -118 158 -113 6 18 -25 57 -151 188 -242 251 -354 406 -488
677 -171 347 -192 597 -71 829 66 127 175 217 315 261 145 46 284 28 404 -52
76 -50 130 -115 180 -218 24 -49 41 -79 38 -65 -4 14 -31 76 -61 138 -84 174
-187 265 -345 307 -59 16 -169 18 -237 4z m-284 -1221 c11 -27 19 -48 16 -48
-11 0 -74 149 -93 220 -32 113 -24 107 18 -15 21 -60 47 -131 59 -157z m3 -73
c37 -59 43 -73 20 -45 -28 33 -91 158 -91 179 0 9 11 -9 23 -39 13 -30 34 -73
48 -95z m84 -130 c17 -23 21 -33 9 -23 -10 9 -28 32 -38 50 -22 39 -11 29 29
-27z"/>
<path d="M2030 3806 c0 -2 8 -10 18 -17 15 -13 16 -12 3 4 -13 16 -21 21 -21
13z"/>
<path d="M1775 3700 c134 -15 218 -54 298 -139 26 -27 47 -46 47 -41 0 25
-107 122 -167 152 -59 29 -76 32 -162 34 l-96 3 80 -9z"/>
<path d="M2834 3613 c-82 -123 -104 -232 -103 -500 l0 -198 25 84 c46 155 144
306 250 383 103 75 241 128 335 128 32 0 40 3 29 10 -41 26 -182 1 -286 -51
-129 -64 -231 -167 -300 -304 l-36 -70 6 109 c11 175 42 300 105 424 30 58 20
52 -25 -15z"/>
<path d="M3508 3653 c7 -3 16 -2 19 1 4 3 -2 6 -13 5 -11 0 -14 -3 -6 -6z"/>
<path d="M3598 3620 c34 -16 79 -41 100 -56 l37 -26 -35 30 c-36 32 -129 82
-152 82 -7 0 15 -13 50 -30z"/>
<path d="M3363 3584 c3 -4 28 -10 54 -15 112 -21 235 -114 287 -217 81 -161
73 -359 -24 -557 -89 -181 -209 -316 -525 -585 -255 -218 -406 -375 -457 -475
-14 -26 -4 -16 67 70 97 118 201 219 410 400 381 328 524 513 586 753 74 289
-76 575 -326 621 -67 13 -81 13 -72 5z"/>
<path d="M4241 3575 c0 -5 6 -37 14 -70 55 -228 32 -541 -53 -704 -16 -31 -61
-109 -100 -173 -40 -65 -72 -123 -71 -130 0 -7 13 -23 30 -36 l29 -24 80 164
c118 238 142 319 147 493 4 113 1 163 -16 260 -17 101 -59 253 -60 220z"/>
<path d="M556 3533 c-27 -118 -10 -450 29 -581 21 -70 28 -63 9 8 -32 122 -50
374 -35 499 10 94 9 127 -3 74z"/>
<path d="M1763 3506 c-66 -21 -124 -60 -176 -115 -173 -185 -153 -469 54 -761
29 -41 125 -149 213 -239 l161 -164 -115 94 c-118 96 -245 217 -340 324 -29
33 -43 45 -31 28 43 -63 237 -257 396 -396 302 -265 486 -472 610 -684 26 -46
49 -83 51 -83 13 0 -90 181 -175 307 -99 147 -212 286 -435 531 -63 70 -139
159 -169 197 -238 308 -281 638 -107 813 54 54 103 75 182 80 88 5 156 -25
242 -108 68 -65 109 -131 137 -219 l18 -56 0 39 c3 151 -108 330 -246 397 -59
29 -202 37 -270 15z"/>
<path d="M615 3460 c-4 -17 -5 -34 -2 -36 2 -3 7 10 11 27 8 42 0 50 -9 9z"/>
<path d="M721 3424 c0 -11 3 -14 6 -6 3 7 2 16 -1 19 -3 4 -6 -2 -5 -13z"/>
<path d="M591 3347 c-6 -35 -11 -77 -10 -93 1 -16 7 11 15 60 16 103 12 129
-5 33z"/>
<path d="M712 3365 c0 -16 2 -22 5 -12 2 9 2 23 0 30 -3 6 -5 -1 -5 -18z"/>
<path d="M703 3295 c0 -22 2 -30 4 -17 2 12 2 30 0 40 -3 9 -5 -1 -4 -23z"/>
<path d="M1082 3300 c0 -14 2 -19 5 -12 2 6 2 18 0 25 -3 6 -5 1 -5 -13z"/>
<path d="M2682 3250 c0 -19 2 -27 5 -17 2 9 2 25 0 35 -3 9 -5 1 -5 -18z"/>
<path d="M1067 3197 c-20 -185 31 -430 134 -646 28 -57 52 -101 55 -98 3 3
-17 58 -44 123 -99 239 -123 339 -131 544 -6 153 -6 154 -14 77z"/>
<path d="M696 3095 c2 -88 8 -178 14 -200 7 -33 8 -29 3 25 -3 36 -9 126 -14
200 l-7 135 4 -160z"/>
<path d="M571 3194 c0 -11 3 -14 6 -6 3 7 2 16 -1 19 -3 4 -6 -2 -5 -13z"/>
<path d="M2320 3156 c-9 -12 -7 -18 11 -33 80 -63 141 -131 172 -191 33 -64
60 -137 71 -192 3 -14 3 6 0 43 -6 93 -46 213 -95 286 -57 86 -127 124 -159
87z"/>
<path d="M4442 3010 c0 -19 2 -27 5 -17 2 9 2 25 0 35 -3 9 -5 1 -5 -18z"/>
<path d="M4426 2929 c-4 -23 -5 -44 -2 -46 2 -2 7 14 11 37 4 23 5 43 2 46 -2
3 -7 -14 -11 -37z"/>
<path d="M4390 2789 c-13 -45 -48 -132 -79 -194 -31 -63 -51 -109 -44 -103 34
28 167 357 151 373 -2 3 -15 -32 -28 -76z"/>
<path d="M722 2830 c0 -14 2 -19 5 -12 2 6 2 18 0 25 -3 6 -5 1 -5 -13z"/>
<path d="M691 2763 c-3 -45 128 -290 236 -440 69 -96 195 -238 226 -254 12 -6
-1 13 -29 42 -185 195 -318 397 -422 639 -6 14 -11 20 -11 13z"/>
<path d="M3909 2648 c-40 -79 -131 -212 -218 -318 -87 -106 -221 -244 -567
-580 -285 -277 -420 -474 -489 -714 -34 -119 -31 -142 4 -34 63 194 177 368
380 582 58 62 140 150 182 197 42 46 165 176 273 288 209 216 306 333 387 467
49 81 84 154 74 154 -2 0 -14 -19 -26 -42z"/>
<path d="M4264 2319 c-50 -76 -89 -139 -87 -139 13 0 190 266 182 274 -2 2
-45 -59 -95 -135z"/>
<path d="M1723 2393 c4 -6 60 -55 125 -109 64 -54 151 -128 192 -164 41 -35
66 -54 55 -41 -23 27 -382 330 -372 314z"/>
<path d="M1342 2263 c51 -80 212 -252 455 -484 155 -148 317 -311 359 -362
144 -172 267 -377 315 -524 12 -40 25 -71 27 -69 7 8 -58 233 -88 304 -104
245 -266 432 -610 707 -171 136 -297 254 -414 385 -31 36 -51 55 -44 43z"/>
<path d="M3789 2073 c-13 -16 -12 -17 4 -4 16 13 21 21 13 21 -2 0 -10 -8 -17
-17z"/>
<path d="M2140 2035 c13 -14 26 -25 28 -25 3 0 -5 11 -18 25 -13 14 -26 25
-28 25 -3 0 5 -11 18 -25z"/>
<path d="M1830 1895 c0 -2 39 -37 88 -77 145 -121 233 -198 327 -287 53 -51
41 -36 -30 34 -100 101 -385 345 -385 330z"/>
<path d="M2231 1751 c68 -73 146 -156 172 -185 l49 -51 -44 55 c-23 30 -101
113 -172 185 l-128 130 123 -134z"/>
<path d="M1699 1603 c46 -51 86 -93 88 -93 7 0 -132 154 -154 171 -10 8 20
-28 66 -78z"/>
<path d="M3210 1553 c-118 -120 -173 -198 -65 -93 82 80 190 200 179 200 -4 0
-56 -48 -114 -107z"/>
<path d="M3380 1423 c-246 -194 -414 -344 -441 -396 -7 -12 19 7 57 43 38 36
168 145 289 242 197 159 379 316 365 318 -3 0 -124 -93 -270 -207z"/>
<path d="M2601 884 c0 -11 3 -14 6 -6 3 7 2 16 -1 19 -3 4 -6 -2 -5 -13z"/>
</g>
</svg>